/* XPM */
static char *gokun1706222127[] = {
/* columns rows colors chars-per-pixel */
"51 51 43 1 ",
"  c #151515",
". c #1B1B1B",
"X c #2E1301",
"o c #29180A",
"O c #3D1A05",
"+ c #001020",
"@ c #020B3B",
"# c #001B35",
"$ c #2D2D2D",
"% c #3F3F3F",
"& c #401B02",
"* c #790000",
"= c #5A3616",
"- c #553418",
"; c #622904",
": c #7A3405",
"> c #4C4701",
", c #595300",
"< c #5E5800",
"1 c #7E5C00",
"2 c #78481E",
"3 c #746D00",
"4 c #011554",
"5 c #002448",
"6 c #00366C",
"7 c gray31",
"8 c #C60000",
"9 c #E02E3C",
"0 c #9C4307",
"q c #9E7300",
"w c #C5540A",
"e c #CB782F",
"r c #F1692A",
"t c #A99E00",
"y c #CC9900",
"u c #FFEE00",
"i c #DFA36D",
"p c #004891",
"a c #0060BF",
"s c #909090",
"d c gray72",
"f c #EBC7A7",
"g c gray95",
/* pixels */
"@@@@@@@@@@@@@@@@@@@@@@@@@@@    @@@@@@@@@@@@@@@@@@@@",
"@@@@@@@@@@@@@@@@@@@@@@@@@  $$ @@@@@@@@@@@@@@@@@@@@@",
"@@@@@@@@@@@@@@@@@@@@@@@@ $$% @@@@@@@@@@@@@@@@@@@@@@",
"@@@@@@@@@@@@@@@@@@u@@@@ $%%7 @@@@@@@@@@@@@@@@@@@@@@",
"@@@@@u@@@@@@@@@@@@@@@@@ $%7 @@@     @@@@@@@@@@@@@@@",
"@@@@@@@@@@@@@@@@@@@@@@ $%7% @  %%%$$  @@@@@@@@@@@@@",
"@@@@@@@@@@u@@@@@@@@@@@ $%7%  $%777%%$$ @@@@@u@@@@@@",
"@@@@@@@@@@@@@@@@@@@@  $$%7%$$%777%$$    @@@@@@@@@@@",
"@@@@@@@@@@@@@@@@@@@ $$%%7%$  $%7%$  @@@@@@@@@@@@@@@",
"@@@@@@@@@@@@@@@@@@ $%%7%%$ %% $%$ @@@@@@@@@@@@@@@@@",
"@@@@@@@@@3@@@@@@@@ $%7% %$%77% $ @@@@@@@@@@@@@@@@@@",
"@@@@@@@@@@@@@   @ $% % $% $%%7% %   @@@@@@@@@@@@@@@",
"@@@@@u@@@@@@@@@@ $% $% $%   $%7 7%%$  @@@@@@@@@@@@@",
"@@@@@@@@@@@@@@  $%% $% $% ei $% %$$    @@@@@@@@@@@@",
"@@@@@@@@@@@   $$$%$ $$  $ ifi $ $  @@@@@@@@@@@@@@@@",
"@@@@@@@@@@@@@    $=i  ei  iffi   @@@@@@@@@@@@@@@@@@",
"@@@@@@@@@@@@@@@@@ =ie i=s =f=fo @@@@@@@@@@@@@@@@@@@",
"@@@@@@@@@@@@@@@@ $=eeei=dg.=e=o$ @@@@@@@@@@u@@@@@@@",
"@@@@@@@@@@@@@@@    ==eeiiffffio   u@@@@@@@@@@@@u@@@",
"@@@@@@@@@@@@u@@@@@@oe=eeioooi=@@@@@@@@@@@@@@@@@@@@@",
"@@@@@@@@@@@@@@@@@@&&ie==eeii=@@@@@@@@@@@@@@@@@@@@@@",
"@@@@@@@@@@@@@@@@##0w&iee====@@@@@@@@@@@@@@@@@@@@@@@",
"@@@@@@@@@@@@@@@#6p50w&##eeie++@@@@@@@@@@@@@@@@@@@@@",
"@@@@@@@@@@@@@@#6pap50w5p####+5+@@@@@@@@@@@@@@@@@@@@",
"@@@@@@@@@@@@@@#56pa50w56paap#5+@@@@@@@@@@@@@@@@@@@@",
"@@@@@@@@@@@@@=ee55p50wr56ppa5Xo@@@@@@@@@@@@@@@@@@@@",
"@@@@@@@@@@@@@=i2ef4;:0wr56p5rXio@@@@<@@@@@@@@@t@@@@",
"@@@@@@@@@@@@@=e2ei&&;:0wr55rwXio@@@@@@@@@@@@@@@@@@@",
"@@@@@@@@@@@@=e2ef=@@&;:0wrrw0Xio@@@@@@@@@@@@@@@@@@@",
"@@@@@@@@<@@@=ei2i-@@@&;:0ww0:Xeo,@@@@@@@@@@@@@@@@@@",
"@@@@@@@@@@@@#5ei=@@u@&5555555X#@@@@@@@@@@@@@@@@@@@@",
"@@@<@@@@@@@@#655=@@@@#66paaap#6#@u@@@@@@@@@@@@@@@@@",
"@@@@@@@@@@@@=5pa#@@@O;5555555X5#@@@@@@@@@@@@@@@@@@@",
"@@@@@@u@@@@@=e55i=@@&00000;0;0Xeo@@@@@@@@@@@@@@@@@@",
"@@@@@@@@@@@@=eifii=&;0ww;w;w0wXeo@@@@@@@@@t@@@@@@@@",
"@@@@@@@@@@@@=eif=i=;0wrrw0w;w0Xeo@@@@@@@@@@@@@@@@@@",
"@@@@@@@@@@@@=eei==;0wr;w0&0;w0Xeo@@@@@@@@@@@@@@@@@@",
"@@@@@@@@@@@@@==ei=0;wrw;0&0ww0Xo@@@@@@@@@@@@@@@@@@@",
"@@@@@@<@@@@@@@@==&ww;rw0&0wr;0X@@@@@@@@@@@@@@@@@@@@",
"@@@@@@@@@@@@@@@@@&wrwrw0&0w;ww0X@@@@@@@@@@@@@@@@@@@",
"@@@@@@@@@@@@@@@@&0wrrw0&@X0wrw0X@@@@@<@@@@@@@@@@@@@",
"@@@@@@@@@@@@@@@@&wr;rw0&@X0ww;0X@@@@@@@@@@@@@@@@@@@",
"@@@@@@@@@@@@@@@&0wrr;;&@@X0;;w0X@@@@@@@@@@@@@@@@@@@",
"@@@@@@@@@@@@@@@&0wwww0&@@XX000;X@@@@@@@@@@@@@@@@@@@",
"@@@@@@@@@@@@@@@@&&000;&@@#6XXXX@@@@@@@@@@@@@@@>@@@@",
"@@@@@@@@@@@@@@@#6y&&&&@@@#6ppq#@@@@@@@@@@@@@u@@@@@@",
"@@@@@@@@@@@@@@@#6qap#@@@@#6paq#@@@@@@@@@@@@@@@>@@@@",
"@@@@@@@@@@u@@@#**889#@@@@#**889#@@@@@@@@@@@@@@@@@@@",
"@@@@@@@@@@@@@@#6qap#@@@@@@#6pap1#@@@@@@@@@@@>@@@@@@",
"@@@@@@@@@@@@@@#61p6#@@@@@@@######@@@@@@@@@@@@@@@@@@",
"@@@@@@@@@@@@@@######@@@@@@@@@@@@@@@@@@@@@@@@@@@@@@@"
};
