/* XPM */
static char *_2d3573f8acb4782c2d1a3602ca156c6xglDKqo3I5Y1ZEbo[] = {
/* columns rows colors chars-per-pixel */
"51 51 17 1 ",
"  c #2F2F2F",
". c #939698",
"X c #959798",
"o c #97999B",
"O c #989A9B",
"+ c #999B9D",
"@ c #9B9D9E",
"# c #9C9E9F",
"$ c #9D9FA0",
"% c #9EA0A1",
"& c #A1A2A3",
"* c #A2A3A4",
"= c #A3A4A5",
"- c #A6A6A7",
"; c #A6A7A8",
": c #A7A8A8",
"> c #AAAAAA",
/* pixels */
">>>>>>>>>>>>>>>>>>>>>>>>>>>>>>>>>>>>>>>>>>>>>>>>>>>",
">>>>>>>>>>>>>>>>>>>>>>>>>>>>>>>>>>>>>>>>>>>>>>>>>>>",
">>>>>>>>>>>>>>>>>>>>>>>>>>>>>>>>>>>>>>>>>>>>>>>>>>>",
">>>> >>>>>>>>>>>>>>>>>>>>>>>>>>>>>>>>>>>>>>>>> >>>>",
">>>   >>>>>>>>>>>>>>>>>>>>>>>>>>>>>>>>>>>>>>>   >>>",
">>>> >>>>>>>>>>>>>>>>>>>>>>>>>>>>>>>>>>>>>>>>> :>>>",
">>>>>>>>>>>>>>>>>>>>>>>>>>>>>>>>>>>>>>>>>>>>>:::>>:",
">>>>>>>>>>>>>>>>>>>>>>>>>>>>>>>>>>>>>>>>>:::;;::::;",
">>>>>>>>>>>>>>>>>>>>>>>>>>>>>>>>>>>>>>>>:;;--------",
">>>>>>>>>>>>>>>>>>>>>>>>>>>>>>>>>>>>>>>:----------=",
">>>>>>>>>>>>>>>>>>>>>>>>>>>>>>>>>>>>>>:---=-==--===",
">>>>>>>>>>>>>>>>>>>>>>>>>>>>>>>>>>>>>>----========*",
">>>>>>>>>>>>>>>>>>>>>>>>>>>>>>>>>>>>>:--==****====*",
">>>>>>>>>>>>>>>>>>>>>>>>>>>>>>>>>>>>>;-=**&&&*****&",
">>>>>>>>>>>>>>>>>>>>>>>>>>>>>>>>>>>>:--**&&&&&****&",
">>>>>>>>>>>>>>>>>>>>>>>>>>>>>>>>>>>>--=*&&%%&&***&&",
">>>>>>>>>>>>>>>>>>>>>>>>>>>>>>>>>>>:--=&%%%%%&&&&&&",
">>>>>>>>>>>>>>>>>>>>>>>>>>>>>>>>>>:---*&%%%%%&&&%%%",
">>>>>>>>>>>>>>>>>>>>>>>>>>>>>>>>>>:-==*%%%%%%%%%%%&",
">>>>>>>>>>>>>>>>>>>>>>>>>>>>>>>>>:;=**&%%%%%%%%%%%%",
">>>>>>>>>>>>>>>>>>>>>>>>>>>>>>:;;--=*&&%%$%%%%%%%%%",
">>>>>>>>>>>>>>>>>>>>>>>>>>::;------=&&%%$$$%%%%%%%%",
">>>>>>>>>>>>>>>>>>>>>>>>>;----=====&&%%%$$$$%%$%%%%",
">>>>>>>>>>>>>>>>>>>>>>>:----=***&*&%%%%%$$$$$%$%%$$",
">>>>>>>>>>>>>>>>>>>>>>:--*&&&&&&&%%%%$$$$$$$$%$%$$$",
">>>>>>>>>>>>>>>>>>>>>:-=*&&%%%%%%%%%$$$$$$$$$$$%$$#",
">>>>>>>>>>>>>>>>>>>>;--*&%%%%$%%%%%%$$$#$$$$$$$$$$$",
">>>>>>>>>>>>>>>>>>>;--=&&%$$$$$%$%%$$$$$#$$$$$$$$$#",
">>>>>>>>>>>>>>>>>>>---&&%$$$$$$%%$%$$$#$###$$###$##",
">>>>>>>>>>>>>>>>>>;-=&&%$##$#$$$$$%$#$######$##@@#@",
">>>>>>>>>>>>>>>>>>--*&%$######$$$$$$$$########@@@@@",
">>>>>>>>>>>>>>>>>:-=&&%########$$$$$$$######@@@@@@+",
">>>>>>>>>>>>>>>>>--=&%$###@###$$$$$$$$#$###@@@@@@@+",
">>>>>>>>>>>>>>>>:--=&%$##@####$$$$$$$$$###$@@@@@@++",
">>>>>>>>>>>>>>>>;--*&%$##@@#####$$$$$$$####@@@@@@++",
">>>>>>>>>>>>>>>>;--&&%$#@@######$$$$$$$$###@@@@@@+O",
">>>>>>>>>>>>>>>>--=&%$$#@@@####$$$$$$$$$$##@@@@@+Oo",
">>>>>>>>>>>>>>>>--=&%$$#@@@#####$$$$$$$$$$#@@@@@+Oo",
">>>>>>>>>>>>>>>>--=&%$##@@@@######$$$$$$$$$#@@@@++o",
">>>>>>>>>>>>>>>>;-=&%$#$@@@@#####$#$$$$$$$##@@@+Ooo",
">>>>>>>>>>>>>>>>;-*&%$#@@@@@@###$#$$$$$$$$$@#@@@+oo",
">>>>>>>>>>>>>>>>;-=&%%#@@@@@@######$$$$$$$#@#@@@Ooo",
">>>>>>>>>>>>>>>>:-=&%$#@@@@@@#####$$##$####$#@@@+Oo",
">>>>>>>>>>>>>>>>;-*&%##@@@@@@############$$$@@@@@+o",
">>>>>>>>>>>>>>>>--=&%$#@@@@@@@@#############@@@@@+o",
">>>> >>>>>>>>>>>--*%$$#@@@@@@@@@###########@@@ @+oo",
">>>   >>>>>>>>>>-*&%%$@@@@@@@@@#@#####@@@@@@+   ooo",
">>>> >>>>>>>>>>;-&&%$#@@@@@@@@@@@@@@@@@@@@+@++ oooX",
">>>>>>>>>>>>>>:-=&&$#@@@@@@@@@@@@@#@@@@++++++OoooX.",
">>>>>>>>>>>>>:-=*%%$@@@@@@@@@@@@@@@@@@@@@+++ooooX..",
">>>>>>>>>>:--==&%$$@@@@@@@@@@@@@@@@@@@@++OooooooXXX"
};
