/* XPM */
static char *_f9df2efdf1a4998c630ffaff5aecb4fLNVSQ8yAoxc8A638[] = {
/* columns rows colors chars-per-pixel */
"51 51 82 1 ",
"  c black",
". c #2F2F2F",
"X c #8F0C00",
"o c #930D00",
"O c #9A0F00",
"+ c #951000",
"@ c #9C1300",
"# c red",
"$ c #CC2C00",
"% c #D02E00",
"& c #CF3000",
"* c #D43300",
"= c #DC3600",
"- c #DD3900",
"; c #E23D00",
": c #EA3C01",
"> c #F23F01",
", c #EF4501",
"< c #EB4905",
"1 c #F24301",
"2 c #FA4501",
"3 c #F14E00",
"4 c #FF4C02",
"5 c #E95706",
"6 c #F25605",
"7 c #FD5305",
"8 c #F55A05",
"9 c #FE5C05",
"0 c #F56005",
"q c #FE6206",
"w c #F06C01",
"e c #FF6906",
"r c #EC7501",
"t c #EB7C01",
"y c #F07B02",
"u c #FD7D02",
"i c #DF8600",
"p c #DB8A00",
"a c #D69500",
"s c #DA9600",
"d c #D69B00",
"f c #DA9A00",
"g c #EA8201",
"h c #E78B01",
"j c #EC8D01",
"k c #D5A200",
"l c #DBA400",
"z c #DBA800",
"x c #FDA100",
"c c #FCB300",
"v c #FEBD04",
"b c #FFB309",
"n c #FFBC0D",
"m c #FFC206",
"M c #FFC50B",
"N c #FFDB7D",
"B c #FFE37D",
"V c #FFEB7D",
"C c #727581",
"Z c #797C87",
"A c #919096",
"S c #949798",
"D c #96999A",
"F c #9B9D9E",
"G c #9C9E9F",
"H c #9D9FA1",
"J c #9FA1A2",
"K c #A0A2A3",
"L c #A2A3A5",
"P c #A3A4A6",
"I c #A6A7A7",
"U c #A7A7A8",
"Y c #A7A8A9",
"T c #AAAAAA",
"R c #FFDB87",
"E c #FFDF98",
"W c #FFE396",
"Q c #FFEB96",
"! c #FFEC96",
"~ c #FFE098",
"^ c #FFE19E",
"/ c #FFEC9E",
/* pixels */
"TTTTTTTTTTTTTTTTTTTTTTTTTTTTTTTTTTTTTTTTTTTTTTTTTTT",
"TTTTTTTTTTTTTTTTTTTTTTTTTTTTTTTTTTTTTTTTTTTTTTTTTTT",
"TTTTTTTTTTTTTTTTTTTTTTTTTTTTTTTTTTTTTTTTTTTTTTTTTTT",
"TTTT.TTTTTTTTTTTTTTTTTTTTTTTTTTTTTTTTTTTTTTTTT.TTTT",
"TTT...TTTTTTTTTTTTTTTTTTTTTTTTTTTTTTTTTTTTTTT...TTT",
"TTTT.TTTTTTTTTTTTTTTTTTTTTTTTTTTTTTTTTTTTTTTTT.YTTT",
"TTTTTTTTTTTTTTTTTTTTTTTTTTTTTTTTTTTTTTTTTTTTTYYYTTY",
"TTTTTTTTTTTTTTTTTTTTTTTTTTTTTTTTTTTTTTTTTYYYUUYYYYU",
"TTTTTTTTTTTTTTTTTTTTTTTTTTTTTTTTTTTTTTTTYUUIIIIIIII",
"TTTTTTTTTTTTTTTTTTTTTTTTTTTTTTTTTTTTTTTYIIIIIIIIIIP",
"TTTTTTTTTTTTTTTTTTTTTTTTTTTTTTTTTTTTTTYIIIPIPPIIPPP",
"TTTTTTTTTTTTTTTTTTTTTTTTTTTTTTTTTTTTTTIIIIPPPPPPPPL",
"TTTTTTTTTTTTTTTTTTTTTTTTTTTTTTTTTTTTTYIIPPLLLLPPPPL",
"TTTTTTTTTTTTTTTTTTTTTT       TTTTTTTTUIPLLKKKLLLLLK",
"TTTTTTTTTTTTTTTTTTTT   sttrt   TTTTTYIILLKKKKKLLLLK",
"TTTTTTTTTTTTTTTTTT   vcldlgtgt   TTTIIPLKKJJKKLLLKK",
"TTTTTTTTTTTTTTTTT  NQBnczafgtteu9 TYIIPKJJJJJKKKJKK",
"TTTTTTTTTTTTTTTT  V/W^Nmk#kftty979 IIILKJJJJJKKKJJJ",
"TTTTTTTTTTTTTTT  MWER~Qb###shttq449 PPLJJJJJJJJJJJK",
"TTTTTTTTTTTTTTA fvN^W^Nvk#kkftty929 LLKJJJJJJJJJJJJ",
"TTTTTTTTTTTTTT  fcnN!NMx#k#pktgtq729 KKJJHJJJJJJJJJ",
"TTTTTTTTTTTTTT tffcvbmvcxlpsfgrge919 CJJHHHJJJJJJJJ",
"TTTTTTTTTTTTT  gfdlk#kvczdkdde#ee9-19 JJHHHHJJHJJJJ",
"TTTTTTTTTTTTT tgska###flasfks###qq=@9 JJHHHHHJHJJHH",
"TTTTTTTTTTTTT tttfkk#kddffdfge#ee9-@6 HHHHHHHJHJHHH",
"TTTTTTTTTTTTT tgthi#k#pkddsgw#e#7q;@6 HHHHHHHHHJHHG",
"TTTTTTTTTTTTT tgtttrfpfffsttgrg99;%@6 HGHHHHHHHHHHH",
"TTTTTTTTTTTTT uerttgghtgtttgtjte9=@@q HHGHHHHHHHHHG",
"TTTTTTTTTTTTT  qqtgggt#tgtgt#8e9;*@19 GHGGGHHGGGHGG",
"TTTTTTTTTTTTTT 9q9tgt###tht###81$@>9 HGGGGGGHGGFFGF",
"TTTTTTTTTTTTTT 937qett#tggyt#t,$+$29 HGGGGGGGGFFFFF",
"TTTTTTTTTTTTTTT 917q8#t#8e8#<#$+X1q HHGGGGGGFFFFFFF",
"TTTTTTTTTTTTTTT 94=-76979q9=-$+X*49 HHGHGGGFFFFFFFF",
"TTTTTTTTTTTTTTTL 94:-;;-**-*@@*149 HHHHGGGHFFFFFFFF",
"TTTTTTTTTTTTTTTTU 581>*OoOo@&:209 ZHHHHGGGGFFFFFFFF",
"TTTTTTTTTTTTTTTTUL  981:::::209  HHHHHHHGGGFFFFFFFD",
"TTTTTTTTTTTTTTTTIIPK  9088809  HHHHHHHHHHGGFFFFFFDD",
"TTTTTTTTTTTTTTTTIIPKJH       GGGHHHHHHHHHHGFFFFFFDD",
"TTTTTTTTTTTTTTTTIIPKJHGGFFFFGGGGGGHHHHHHHHHGFFFFFFD",
"TTTTTTTTTTTTTTTTUIPKJHGHFFFFGGGGGHGHHHHHHHGGFFFFDDD",
"TTTTTTTTTTTTTTTTUILKJHGFFFFFFGGGHGHHHHHHHHHFGFFFFDD",
"TTTTTTTTTTTTTTTTUIPKJJGFFFFFFGGGGGGHHHHHHHGFGFFFDDD",
"TTTTTTTTTTTTTTTTYIPKJHGFFFFFFGGGGGHHGGHGGGGHGFFFFDD",
"TTTTTTTTTTTTTTTTUILKJGGFFFFFFGGGGGGGGGGGGHHHFFFFFFD",
"TTTTTTTTTTTTTTTTIIPKJHGFFFFFFFFGGGGGGGGGGGGGFFFFFDD",
"TTTT.TTTTTTTTTTTIILJHHGFFFFFFFFFGGGGGGGGGGGFFF.FFDD",
"TTT...TTTTTTTTTTILKJJHFFFFFFFFFGFGGGGGFFFFFFF...DDD",
"TTTT.TTTTTTTTTTUIKKJHGFFFFFFFFFFFFFFFFFFFFFFFF.DDDD",
"TTTTTTTTTTTTTTYIPKKHGFFFFFFFFFFFFFGFFFFFFFFFFDDDDSS",
"TTTTTTTTTTTTTYIPLJJHFFFFFFFFFFFFFFFFFFFFFFFFDDDDDSS",
"TTTTTTTTTTYIIPPKJHHFFFFFFFFFFFFFFFFFFFFFFDDDDDDDDDD"
};
