/* XPM */
static char *_df06f1222ca4407d2f2a5cf99ff05baLH2r7GKTM12Q5QHM[] = {
/* columns rows colors chars-per-pixel */
"51 51 37 1 ",
"  c #1C1C33",
". c #2F2F2F",
"X c #2E323D",
"o c #680024",
"O c #211963",
"+ c #632D40",
"@ c #704046",
"# c #4E6470",
"$ c #D32A0C",
"% c #F91B3C",
"& c #C26355",
"* c #E0D731",
"= c #FF9751",
"- c #272F87",
"; c #1F5EA3",
": c #235CCE",
"> c #939698",
", c #959798",
"< c #97999B",
"1 c #989A9B",
"2 c #999B9D",
"3 c #9B9D9E",
"4 c #9D9F9F",
"5 c #9D9FA0",
"6 c #929BB7",
"7 c #9FA1A2",
"8 c #A1A3A3",
"9 c #A2A3A4",
"0 c #A3A4A5",
"q c #A5A6A7",
"w c #A5A7A9",
"e c #A7A8A9",
"r c #AAAAAA",
"t c #FFD3AD",
"y c #AFC3CC",
"u c #EDEFEF",
"i c #FEFDFA",
/* pixels */
"rrrrrrrrrrrrrrrrr rrrrrr y  rr #yy#  rrrrrrrrrrrrrr",
"rrrrrrrrrrrrrrrrr rrrrr #y    yy    rrrrrrrrrrrrrrr",
"rrrrrrrrrrrrrrrr # rrrr yy  #y#    rrrrrrrrrrrrrrrr",
"rrrr.rrrrrrrrrrr y# rrr yy  y#     rrr rrrrrrr.rrrr",
"rrr...rrrrrrrrrr y # rr yy  #     rrr  rrrrrr...rrr",
"rrrr.rrrrrrrrrrr y  # r yy     y  rr # rrrrrrr.rrrr",
"rrrrrrrrrrrr rrr y   #  y#    #y    ## rrrrrreeerre",
"rrrrrrrrrrrr  rr y#   #yy##  #yy  ## y rreeewweeeew",
"rrrrrrrrrrrr y r yy  #y     # yy    #y rewwqqqqqqqq",
"rrrrrrrrrrrr  y  yy  y     #  yy   #y reqqqqqqqqqq0",
"rrrrrrrrrrrr   y##y           yy  #y  eqqqqq00qq000",
"rrrrrrrrrrrr    yyy  y        yy  y  rqqqq000000009",
"rrrrrrrrrrrr #   ##  y#       y#       q00999900009",
"rrrrrrrrrrrrr #      y #     #y#      q099888999998",
"rrrrrrrrrrrrrr #     y  #   #y#y#    qq998888899998",
"rrrrrrrrrrrrrrr #    y      ##  y#  qq0988778899988",
"rrrrrrrrrrrrrrrr     y         t y# qq0877777888888",
"rrrrrrrrrrrrrr       y#     i  t  y qq9877777888777",
"rrrrrrrrrrrrrrrrr    #y#    i t rr  009777777777778",
"rrrrrrrrrrrrrrrrrrr   ##    t&t rew 998777777777777",
"rrrrrrrrrrrrrrrrrrrrr      +&t wwqq0988775777777777",
"rrrrrrrrrrrrrrrrrrrrrr    ++t qqqqq0887755577777777",
"rrrrrrrrrrrrrrrrrr    tt&&tt    0008877755557757777",
"rrrrrrrrrrrrrrrr  $=;O&&&&&&O;$$  87777755555757755",
"rrrrrrrrrrrrrrr ;;=$;;;;;;;;;;$$;; 7755555555757555",
"rrrrrrrrrrrrrrr OO;============;OO 7555555555557554",
"rrrrrrrrrrrrrrr ;;O=====XXX===$O;; 7555455555555555",
"rrrrrrrrrrrrrr &+;;==$$Xuu6X=$=;;+& 555545555555554",
"rrrrrrrrrrrrrr +&& =$=$X66uX$== &&+ 554544455444544",
"rrrrrrrrrrrrrr &it  =$$Xu6X$$=  ti& 454444445443343",
"rrrrrrrrrrrrr i&it q =$XXX$$$ 5 ti&i 54444444433333",
"rrrrrrrrrrrrr i&& q08 :$$$$: 445 &&i 54444443333332",
"rrrrrrrrrrrrr tt qq08 ------ 4555 tt 54544433333332",
"rrrrrrrrrrrrr :- qq0 =$::::$= 555 -: 55444533333322",
"rrrrrrrrrrrrr :: qq9 $$o=$=$$ 445 :: 55444433333322",
"rrrrrrrrrrrrr &tt q $==o=$===$ 4 tt& 55544433333321",
"rrrrrrrrrrrrr t++ 0 ===o=$==== 5 @@t 5555443333321<",
"rrrrrrrrrrrrr t+t  $===o=$====$  t@t 5555543333321<",
"rrrrrrrrrrrrr tt q $===o$$====$ 4 tt 5555554333322<",
"rrrrrrrrrrrrrr  w o$===ooo====$o 5  5555554433321<<",
"rrrrrrrrrrrrrrrr $o$===$  $===$o$ 555555555343332<<",
"rrrrrrrrrrrrrrr $oo$==$=  =$==$o$$ 55555554343331<<",
"rrrrrrrrrrrrrrr $oo$$$= 33 =$$$oo$ 544544445433321<",
"rrrrrrrrrrrrrrr $oo$$oo 33 oo$$oo$ 444444555333332<",
"rrrrrrrrrrrrrrr $ooooo$ 33 $ooooo$ 444444444333332<",
"rrrr.rrrrrrrrrrr $ooo$o 33 o$ooo$ 444444444333.32<<",
"rrr...rrrrrrrrrr o$$$o 3333 o$$$o 44443333332...<<<",
"rrrr.rrrrrrrrrrw O%O  333333  O%O 333333332322.<<<,",
"rrrrrrrrrrrrrreq O% 4333333333 %O 433332222221<<<,>",
"rrrrrrrrrrrrreq0 %O 3333333333 O% 3333333222<<<<,>>",
"rrrrrrrrrreqq00 ** 333333333333 ** 3333221<<<<<<,,,"
};
