/* XPM */
static char *_67baf7ce3bc4d0fa323006f2dac636a2plAPmtSNOKrfnzw[] = {
/* columns rows colors chars-per-pixel */
"51 51 41 1 ",
"  c #1C1C33",
". c #2F2F2F",
"X c #680024",
"o c #211963",
"O c #632D40",
"+ c #704046",
"@ c #4E6470",
"# c #D32A0C",
"$ c #F91B3C",
"% c #C16355",
"& c #FFDD24",
"* c #FF9751",
"= c #272F87",
"- c #1F5EA3",
"; c #235CCE",
": c #939698",
"> c #959798",
", c #97999B",
"< c #989A9B",
"1 c #999B9D",
"2 c #9B9D9E",
"3 c #9D9F9F",
"4 c #839BA8",
"5 c #9C9EA0",
"6 c #9E9FA0",
"7 c #929BB7",
"8 c #9FA1A2",
"9 c #9AB2BC",
"0 c #A1A3A3",
"q c #A2A3A4",
"w c #A3A4A5",
"e c #A5A6A7",
"r c #A5A7A9",
"t c #A6A8A8",
"y c #AAAAAA",
"u c #FFD3AD",
"i c #AFC3CC",
"p c #FEDCC1",
"a c #EDEFEF",
"s c #F0F2F2",
"d c #FEFDFA",
/* pixels */
"yyyyyyyyyyyyyyyyyyyyyyy @i yyyyyyyyyyyyyyyyyyyyyyyy",
"yyyyyyyyy    @@@@ yyyy @@i yyyyyyyyyyyyyyyyyyyyyyyy",
"yyyyyyyyyyy    @@@ yy @ @i yyyyyyyyyyyyyyyyyyyyyyyy",
"yyyy.yyyyyyy    @@@  @  @i yyyyyy yyyyyyyyyyyy.yyyy",
"yyy...yyyy yy  iiiii @  @i yyyyyy yyyyyyyyyyy...yyy",
"yyyy.yyyyy yyy  i  @i@  @i yyyyy  yyyyyyyyyyyy.yyyy",
"yyyyyyyyyy  yy   i  @i@ @i yyyy   yyyyyyyyyyytttyyt",
"yyyyyyyyyy i yy  i@  @i@ii@@@y   @@@@   ytttrrttttr",
"yyyyyyyyyy @i    ii   @@@    @  ii@   yytrreeeeeeee",
"yyyyyyyyyy @ iii@ii   @@     @ i@    yyteeeeeeeeeew",
"yyyyyyyyyy @    @ii          @i@    yy eeeeewweewww",
"yyyyyyyyyyy @            ii        yy@ eeewwwwwwwwq",
"yyyyyyyyyyyy @     i@@  i@ i ii @ y@@  ewwqqqqwwwwq",
"yyyyyyyyyyyyy @@@ i@  @i@   @  i@@@   ewqq000qqqqq0",
"yyyyyyyyyyyy @    i@   i    @  i     eeqq00000qqqq0",
"yyyyyyyyyyy @     i@   @   @   i    eewq008800qqq00",
"yyyyyyyyyy         @   %  @%  @    teew088888000000",
"yyyyyyyyyyyyyyy    %@  % @%u @%       q088888000888",
"yyyyyyyyyyyyyyyyy  uO4 %@%u 4 u     wwq888888888880",
"yyyyyyyyyyyyyyyyyy uOss uu ss%p   rwqq0888888888888",
"yyyyyyyyyyyyyyyyyyy  us9%%9su  rreewq00886888888888",
"yyyyyyyyyyyyyyyyyyyy duuuuuud eeeeew008866688888888",
"yyyyyyyyyyyyyyyyyy   +duuuud+   www0088866668868888",
"yyyyyyyyyyyyyyyy  ##o%+duud+%o*#  08888866666868866",
"yyyyyyyyyyyyyyy --##-%%++++%%-#*-- 8866666666868666",
"yyyyyyyyyyyyyyy oo-*-udd%%ddu-*-oo 8666666666668663",
"yyyyyyyyyyyyyyy --o#*o------o**o-- 8666366666666666",
"yyyyyyyyyyyyyy %%%-*#*oooooo***-%%% 666636666666663",
"yyyyyyyyyyyyyy %du **#*oooo*a7* ud% 663633366333623",
"yyyyyyyyyyyyyy Odu **##****#7a* udO 363333336332232",
"yyyyyyyyyyyyyy O% e  #######*  6 %O 663332323322222",
"yyyyyyyyyyyyy uO tew0 ;####; 3366 Ou 63332222222221",
"yyyyyyyyyyyyy uu eew0 ====== 3666 uu 63633322222221",
"yyyyyyyyyyyyy =; eew *#;;;;=* 666 ;= 66333622222211",
"yyyyyyyyyyyyy ;; eeq ##*#*X*# 336 ;; 66333322222211",
"yyyyyyyyyyyyy duu e #***#*X**# 3 uud 6663332222221<",
"yyyyyyyyyyyyy d%% w ****#*X*** 6 %%d 666633222221<,",
"yyyyyyyyyyyyy u%u  #****#*X***#  u%u 666663222221<,",
"yyyyyyyyyyyyy uu e #****##X***# 3 uu 6666663222211,",
"yyyyyyyyyyyyyy  r X#****XXX***#X 6  666666332221<,,",
"yyyyyyyyyyyyyyyy #X#***#  #***#X# 666666666222221,,",
"yyyyyyyyyyyyyyy #XX#**#*  *#**#XX# 6666666222222<,,",
"yyyyyyyyyyyyyyy #XX###* 22 *###XX# 63363333632221<,",
"yyyyyyyyyyyyyyy #XXXXXX 22 XXXXXX# 323333666222221,",
"yyyyyyyyyyyyyyy #XXXXX# 22 #XXXXX# 333333333222221,",
"yyyy.yyyyyyyyyy X#XXX#X 22 X#XXX#X 33333333222.21,,",
"yyy...yyyyyyyyyy X###X 2222 X###X 33332222221...,,,",
"yyyy.yyyyyyyyyyr -$-  222222  -$- 222222221211.,,,>",
"yyyyyyyyyyyyyyte -$ 3222222222 $- 32222111111<,,,>:",
"yyyyyyyyyyyyytew $- 2222222222 -$ 2222222111,,,,>::",
"yyyyyyyyyyteeww && 222222222222 && 222211<,,,,,,>>>"
};
