/* XPM */
static char *a96393f6f5664b739c7e3806081f0f49B75l0WBIJD1XLp7s[] = {
/* columns rows colors chars-per-pixel */
"51 51 42 1 ",
"  c #1C1C33",
". c #2F2F2F",
"X c #680024",
"o c #333D5B",
"O c #211963",
"+ c #632D40",
"@ c #4E6470",
"# c #D32A0C",
"$ c #F91B3C",
"% c #B76E14",
"& c #C16355",
"* c #FFDD24",
"= c #FF9751",
"- c #272F87",
"; c #1F5EA3",
": c #235CCE",
"> c #939698",
", c #959798",
"< c #97999B",
"1 c #989A9B",
"2 c #999B9D",
"3 c #9B9D9E",
"4 c #9D9F9F",
"5 c #839BA8",
"6 c #9C9EA0",
"7 c #9E9FA1",
"8 c #929BB7",
"9 c #9EA0A1",
"0 c #9AB2BC",
"q c #A1A2A3",
"w c #A2A2A4",
"e c #A3A4A5",
"r c #A5A6A7",
"t c #A5A7A9",
"y c #A7A8A9",
"u c #AAAAAA",
"i c #FFD3AD",
"p c #AFC3CC",
"a c #FEDCC1",
"s c #EDEFEF",
"d c #F0F2F2",
"f c #FEFDFA",
/* pixels */
"uuuuuuuuuuuuuuuuuuuuuuuup@ uuuuuuuuuuuuuuuuuuuuuuuu",
"uuuuuuuuuuuuuuuuuuuuuuuup@@ uuuu @@@@    uuuuuuuuuu",
"uuuuuuuuuuuuuuuuuuuuuuuup@ @ uu @@@    uuuuuuuuuuuu",
"uuuu.uuuuuuuuuuu uuuuuuup@  @  @@@    ouuuuuuu.uuuu",
"uuu...uuuuuuuuuu uuuuuuup@  @ ppppp  uu uuuuu...uuu",
"uuuu.uuuuuuuuuuu  uuuuuup@  @p@  p  uuu uuuuuu.uuuu",
"uuuuuuuuuuuuuuuu   uuuuup@ @p@  p   uu  uuuuuyyyuuy",
"uuuuuuuuuu   @@@@   w@@@@@@p@   @  uu p uyyyttyyyyt",
"uuuuuuuuuuuu   @pp  @   @@p@   @     p@ yttrrrrrrrr",
"uuuuuuuuuuuuu    @p @     @@   @ @ppp @ rrrrrrrrrre",
"uuuuuuuuuuu uu    @p@          @      @ rrrreerreee",
"uuuuuuuuuuu @uu       @@  @@  @@@    @ 7rreeeeeeeew",
"uuuuuuuuuuu  @@u @   @   @  @    @  @ rreewwwweeeew",
"uuuuuuuuuuuu   @@@  @    @   @    @@   ewwqqqwwwwwq",
"uuuuuuuuuuuuu       @  pp@p   @p   @    wqqqqqwwwwq",
"uuuuuuuuuuuuuu      @  p&&@p  @@p  @     q99qqwwwqq",
"uuuuuuuuuuuuuuu      @ p&&&@p &  p  rreq99999qqqqqq",
"uuuuuuuuuuuu          @ ii&&@ & u @ rrwq99999qqq999",
"uuuuuuuuuuuuuu     &  &@  i&&@i uu  eew99999999999q",
"uuuuuuuuuuuuuuuu   && ii+5 i&&i uyt wwq999999999999",
"uuuuuuuuuuuuuuuuu  &&+ff+dd  i ttrrewqq997999999999",
"uuuuuuuuuuuuuuuuuu   +ffiid0di rrrreqq9977799999999",
"uuuuuuuuuuuuuuuuuuuuu +fiiiii eeeeeqq99977779979999",
"uuuuuuuuuuuuuuuuuu    &+fiii+ wwqwq9999977777979977",
"uuuuuuuuuuuuuuuu  ##=&&&++++##  q999977777777979777",
"uuuuuuuuuuuuuuu ;;;=#=ffi&+if==; 999777777777779774",
"uuuuuuuuuuuuuuu OOO;=##afii+i;=; 999777477777777777",
"uuuuuuuuuuuuuuu ;;OO===;;;;;;;=; 997777747777777774",
"uuuuuuuuuuuuuu i&ii ==#=OOOOOOs 9797774734477444744",
"uuuuuuuuuuuuuu ++ii ##=#=;OOOO8 7797474444447443343",
"uuuuuuuuuuuuuu i+i  ##=##=;;;= & 777774444444433333",
"uuuuuuuuuuuuu if+ re   ##===== i 777774444343333332",
"uuuuuuuuuuuuu ii rreq9 ::#### &i- 77774744433333332",
"uuuuuuuuuuuuu :: rreq9 ------ --- 77777444733333322",
"uuuuuuuuuuuu -:: rrwq =##::::# --i 7777444433333322",
"uuuuuuuuuuuu &iii rqq =#==#=X= &&i 7777744433333321",
"uuuuuuuuuuuu ii&+i q =#===#=X== &i 777777443333321<",
"uuuuuuuuuuuu ii&+   X=====#=X== ii 777777743333321<",
"uuuuuuuuuuuuu  ii e ======##X==#  7777777774333322<",
"uuuuuuuuuuuuuuu  r #====##XXX=== 7477777774433321<<",
"uuuuuuuuuuuuuuuut  #===#=  =#=== 4777777777333332<<",
"uuuuuuuuuuuuuuuu #X#==#= 3 #=#==X 477777773333331<<",
"uuuuuuuuuuuuuuu #XX#### 33 XX=##X# 744744447433321<",
"uuuuuuuuuuuuuuu #XX##XX 33 XXXXXX# 434444777333332<",
"uuuuuuuuuuuuuuu #XXXXX# 33 X#XXX#X 444444444333332<",
"uuuu.uuuuuuuuuu X#XXX#X 333 X###X 444444444333.32<<",
"uuu...uuuuuuuuuu ;###X 33333 OX  444443333332...<<<",
"uuuu.uuuuuuuuuut ;$;  333333 OX 33333333332322.<<<,",
"uuuuuuuuuuuuuuyr ;$; 3333333 O 333433332222221<<<,>",
"uuuuuuuuuuuuuyre $; 33333333 % 3333333333222<<<<,>>",
"uuuuuuuuuuyrree ** 333333333 OX  333333221<<<<<<,,,"
};
