/* XPM */
static char *a8ad142f4a0d4722a5bbcbf0e7de606fwdbwhjtPMaNBzGUF[] = {
/* columns rows colors chars-per-pixel */
"51 51 42 1 ",
"  c #1C1C33",
". c #2F2F2F",
"X c #680024",
"o c #333D5B",
"O c #211963",
"+ c #632D40",
"@ c #4E6470",
"# c #D32A0C",
"$ c #F91B3C",
"% c #B76E14",
"& c #C16355",
"* c #FFDD24",
"= c #FF9751",
"- c #272F87",
"; c #1F5EA3",
": c #235CCE",
"> c #939698",
", c #959798",
"< c #97999B",
"1 c #989A9B",
"2 c #999B9D",
"3 c #9B9D9E",
"4 c #9D9F9F",
"5 c #839BA8",
"6 c #9D9FA1",
"7 c #929BB7",
"8 c #9FA0A3",
"9 c #9AB2BC",
"0 c #A0A2A3",
"q c #A2A2A4",
"w c #A2A4A4",
"e c #A3A4A5",
"r c #A6A7A7",
"t c #A6A7A8",
"y c #A6A8A8",
"u c #AAAAAA",
"i c #FFD3AD",
"p c #AFC3CC",
"a c #FEDCC1",
"s c #EDEFEF",
"d c #F0F2F2",
"f c #FEFDFA",
/* pixels */
"uuuuuuuuuuuuuuuuuuuuuuuu @puuuuuuuuuuuuuuuuuuuuuuuu",
"uuuuuuuuuu    @@@@ uuuu @@puuuuuuuuuuuuuuuuuuuuuuuu",
"uuuuuuuuuuuu    @@@ uu @ @puuuuuuuuuuuuuuuuuuuuuuuu",
"uuuu.uuuuuuuo    @@@  @  @puuuuuuu uuuuuuuuuuu.uuuu",
"uuu...uuuuu uu  ppppp @  @puuuuuuu uuuuuuuuuu...uuu",
"uuuu.uuuuuu uuu  p  @p@  @puuuuuu  uuuuuuuuuuu.uuuu",
"uuuuuuuuuuu  uu   p  @p@ @puuuuu   uuuuuuuuuuyyyuuy",
"uuuuuuuuuuu p uu  @   @p@@@@@@q   @@@@   yyyttyyyyt",
"uuuuuuuuuuu @p     @   @p@@   @  pp@   uyttrrrrrrrr",
"uuuuuuuuuuu @ ppp@ @   @@     @ p@    uyrrrrrrrrrre",
"uuuuuuuuuuu @      @          @p@    uy rrereerreee",
"uuuuuuuuuuu8 @    @@@  @@  @@       uu@ rreeeeeeeeq",
"uuuuuuuuuuuuu @  @    @  @   @   @ u@@  eeqqqqeeeeq",
"uuuuuuuuuuuu   @@    @   @    @  @@@   eqq000qqqqq0",
"uuuuuuuuuuu    @   p@   p@pp  @       rqq00000qqqq0",
"uuuuuuuuuu     @  p@@  p@&&p  @      req008800qqq00",
"uuuuuuuuuuuuuuu  p  & p@&&&p @      rre088888000000",
"uuuuuuuuuuuuuuu @ u & @&&ii @          088888000888",
"uuuuuuuuuuuuuuu  uu i@&&i  @&  &     eq888888888880",
"uuuuuuuuuuuuuuu uuu i&&i 5+ii &&   eqq0888888888888",
"uuuuuuuuuuuuuuuuuuuu i  dd+ff+&&  req00886888888888",
"uuuuuuuuuuuuuuuuuuuu id9diiff+   rre008866688888888",
"uuuuuuuuuuuuuuuuuuuuu iiiiif+ eeeee0088864448868888",
"uuuuuuuuuuuuuuuuuuuuu +iiif+&    q08888864446868866",
"uuuuuuuuuuuuuuuuuuu  ##++++&&&=##  8866666666868666",
"uuuuuuuuuuuuuuuuuu ;==fi+&iff=#=;;; 666666646668464",
"uuuuuuuuuuuuuuuuuu ;=;i+iifa##=;OOO 666466666666466",
"uuuuuuuuuuuuuuuuuu ;=;;;;;;;===OO;; 666646666666444",
"uuuuuuuuuuuuuuuuuuu sOOOOOO=#== ii&i 64644466444644",
"uuuuuuuuuuuuuuuuuut 7OOOO;=#=## ii++ 64444446443343",
"uuuuuuuuuuuuuuuuuu & =;;;=##=##  i+i 64444444433333",
"uuuuuuuuuuuuuuuuuy i =====##   66 +fi 4444443333332",
"uuuuuuuuuuuuuuuuu -i& ####:: 46666 ii 4644433333332",
"uuuuuuuuuuuuuuuuy --- ------ 46666 :: 6444633333322",
"uuuuuuuuuuuuuuuu i-- #::::##= 4466 ::- 444433333322",
"uuuuuuuuuuuuuuuu i&& =X=#==#= 446 iii& 644433333321",
"uuuuuuuuuuuuuuuu i& ==X=#===#= 6 i+&ii 66443333321<",
"uuuuuuuuuuuuuuuu ii ==X=#=====X   +&ii 66643333321<",
"uuuuuuuuuuuuuuuur  #==X##====== 4 ii  666664333322<",
"uuuuuuuuuuuuuuuutr ===XXX##====# 6  6666664433321<<",
"uuuuuuuuuuuuuuuutr ===#=  =#===#  666666666343332<<",
"uuuuuuuuuuuuuuuut X==#=# 3 =#==#X# 66666664343331<<",
"uuuuuuuuuuuuuuuu #X##=XX 33 ####XX# 44644446433321<",
"uuuuuuuuuuuuuuuu #XXXXXX 33 XX##XX# 44444666333332<",
"uuuuuuuuuuuuuuuu X#XXX#X 33 #XXXXX# 44444444333332<",
"uuuu.uuuuuuuuuuur X###X 333 X#XXX#X 4444444333.32<<",
"uuu...uuuuuuuuuurq  XO 33333 X###; 4443333332...<<<",
"uuuu.uuuuuuuuuutr00 XO 333333  ;$; 33333332322.<<<,",
"uuuuuuuuuuuuuuyre006 O 3333333 ;$; 33332222221<<<,>",
"uuuuuuuuuuuuuyreq886 % 33333333 ;$ 333333222<<<<,>>",
"uuuuuuuuuuyrree086  XO 333333333 ** 333221<<<<<<,,,"
};
