/* XPM */
static char *_4af06ece5fe4a8bb40478e34abc437445yo3lui38LF2gyt[] = {
/* columns rows colors chars-per-pixel */
"51 51 3 1 ",
"  c #A0A0A0",
". c gray75",
"X c #C0C0C0",
/* pixels */
"XXXX      XX.XXXXXXXXXXXXXXX   XXXXXXXXXXXXXXXXXXXX",
"XXXX      XXXXXXXXXXXXXXXXXX   XXXXXXXXXXXXXXXXXXXX",
"XXXX      XXXXXXXXXXXXXXXXXX   XXXXXXXXXXXXXXXXXXXX",
"X            XXXXXXXXXXXXXXXXXXXXXXXXXXXXXXXXXXXXXX",
"X            XXXXXXXXXXXXXXXXXXXXXXXXXXXXXXXXXXXXXX",
"X            XXXXXXXXXXXXXXXXXXXXXXXXXXXXXXXXXXXXXX",
"X            XXXXXXXXXXXXXXXXXXXXXXXXXXXXXXXXXXXX  ",
"X            XXXXXXXXXXXXXXXXXXXXXXXXXXXXXXXXXXXX  ",
"X            XXXXXXXXXXXXXXXXXXXXXXXXXXXXXXXXXXXX  ",
"XXXX      XXXXXXXXXXXXXXXXXXXXXXXXXXXXXXXXXXXXXXXXX",
"XXXX      XXXXXXXX.XXXXXXXXXXXXXXXXXXXXXXXXXXXXXXXX",
"XXXX      XXXXXXXXXXXXXXXXXXXXXXXXXXXXXXXXXXXXXXXXX",
"XXXXXXXXXXXXXXXXXXXXXXXXXXXXXXXXXXXXXXXXXXXXXXXXXXX",
"XXXXXXXXXXXXXXXXXXXXXXXXXXXXXXXXXXXXXXXXXXXXXXXXXXX",
"XXXXXXXXXXXXXX.XXXXXXXXXXXXXXXXXXXXXXXXXXXXXXXXXXXX",
"XXXXXXXXXXXXXXXXXXXXXXXXXXXXXXXXXXXXXXXXXXXXXXXXXXX",
"XXXXXXXXXXXXXXXXXXXXXXXXXXXXXXXXXXXXXXXXXXXXXXXXXXX",
"XXXXXXXXXXXXXXXXXXXXXXXXXXXXXXXXXXXXXXXXXXXXXXXXXXX",
"XXXXXXXXXXXXXXXXXXXXXXXXX.XXXXXXXXXXX      XXXXXXXX",
"XXXXXXXXXXXXXXXXXXXXXXXXXXXXXXXXXXXXX      XXXXXXXX",
"XXXXXXXXXXXXXXXXXXXXXXXXXXXXXXXXXXXXX      XXXXXXXX",
"XXXXXXXXXXX.XXXXXXX.XXXXXXXXXXXXXX            XXXXX",
"XXXXXXXXXXXXXXXXXXXXXXXXXXXXXXXXXX            XXXXX",
"XXXXXXXXXXXXXXXXXXXXXXX.XXXXXXXXXX            XXXXX",
"XXXXXXXXXXXXXXXXXXXXXXXXXXXXXXXXXX            XXXXX",
"XXXXXXXXXXXXXXXXXXXXXXXXXXXXXXXXXX            XXXXX",
"XXXXXXXXXXXXXXXXXXXXXXXXXXXXXXXXXX            XXXXX",
"XXXX   XXXXXXXXXXXXXXXXXXXXXXXXXXX            XXXXX",
"XXXX   XXXXXXXXXXXXXXXXXXXXXXXXXXX            XXXXX",
"XXXX   XXXXXXX.XXXXXXXXXXXXXXXXXXX            XXXXX",
"X         XXXXXXXXXXXXXXXXXXXXXXXXXXX      XXXXXX  ",
"X         XXXXXXXXXXXXXXXXXXXXXXXXXXX      XXXXXX  ",
"X         XXXXXXXXXXXXXXXXXXXXXXXXXXX      XXXXXX  ",
"X         XXXXXXXXXXXXXXXXXXXXXXXXXXXXXXXXXXXXXXXXX",
"X         XXXXXXXX.XXXXXXXXXXXXXXXXXXXXXXXXXXXXXXXX",
"X         XXXXXXXXXXXXXXXXXXXXXXXXXXXXXXXXXXXXXXXXX",
"XXXX   XXXXXXXXXXXXXXXXXXXXXXXXXXXXXXXXXXXXXXXXXXXX",
"XXXX   XXXXXXXXXXXXXXXXXXXXXXXXXXXXXXXXXXXXXXXXXXXX",
"XXXX   XXXXXXX.XXXXXXXXXXXXXXXXXXXXXXXXXXXXXXXXXXXX",
"XXXX   XXXXXXXXXXXXXXXXXXXXX   XXXXXXXXXXXXXXXXXXXX",
"XXXX   XXXXXXXXXXXXXXXXXXXXX   XXXXXXXXXXXXXXXX.XXX",
"XXXX   XXXXXXXXXXXXXXXXXXXXX   XXXXXXXXXXXXXXXXXXXX",
"X         XXXXXXXXXXXXXXX         XXXXXXXXXXXXXXXXX",
"X         XXXXXXXXXXXXXXX         XXXXXXXXXXXXXXXXX",
"X         XXXXXXXXXXXXXXX         XXXXXXXXXXXXXXXXX",
"XXXX   XXXXXXXXXXXXXX.XXXXXX   XXXXXXXXXXXXXXXXXXXX",
"XXXX   XXXXXXXXXXXXXXXXXXXXX   XXXXXXXXXXXXXXXXXXXX",
"XXXX   XXXXXXXXXXXXXXXXXXXXX   XXXXXXXXXXXXXXXXXXXX",
"XXXXXXXXXXXXXXXXXXXXXXXXXXXXXXXXXXXXXXXXXXXXXXXXXXX",
"XXXXXXXXXXXXXXXXXXXXXXXXXXXXXXXXXXXXXXXXXXXXXXXXXXX",
"XXXXXXXXXXXX.XXXXXXXXXXXXXXXXXXXXXXXXXXXXXXXXXXXXXX"
};
